<svg width="328" height="56" viewBox="0 0 328 56" fill="none" xmlns="http://www.w3.org/2000/svg">
<path d="M37.9766 9.875L46.7422 34.625L55.4609 9.875H64.6953V44H57.6406V34.6719L58.3438 18.5703L49.1328 44H44.3047L35.1172 18.5938L35.8203 34.6719V44H28.7891V9.875H37.9766ZM82.0625 44.4688C78.3438 44.4688 75.3125 43.3281 72.9688 41.0469C70.6406 38.7656 69.4766 35.7266 69.4766 31.9297V31.2734C69.4766 28.7266 69.9688 26.4531 70.9531 24.4531C71.9375 22.4375 73.3281 20.8906 75.125 19.8125C76.9375 18.7188 79 18.1719 81.3125 18.1719C84.7812 18.1719 87.5078 19.2656 89.4922 21.4531C91.4922 23.6406 92.4922 26.7422 92.4922 30.7578V33.5234H76.3438C76.5625 35.1797 77.2188 36.5078 78.3125 37.5078C79.4219 38.5078 80.8203 39.0078 82.5078 39.0078C85.1172 39.0078 87.1562 38.0625 88.625 36.1719L91.9531 39.8984C90.9375 41.3359 89.5625 42.4609 87.8281 43.2734C86.0938 44.0703 84.1719 44.4688 82.0625 44.4688ZM81.2891 23.6562C79.9453 23.6562 78.8516 24.1094 78.0078 25.0156C77.1797 25.9219 76.6484 27.2188 76.4141 28.9062H85.8359V28.3672C85.8047 26.8672 85.3984 25.7109 84.6172 24.8984C83.8359 24.0703 82.7266 23.6562 81.2891 23.6562ZM110.609 24.9922C109.688 24.8672 108.875 24.8047 108.172 24.8047C105.609 24.8047 103.93 25.6719 103.133 27.4062V44H96.3594V18.6406H102.758L102.945 21.6641C104.305 19.3359 106.188 18.1719 108.594 18.1719C109.344 18.1719 110.047 18.2734 110.703 18.4766L110.609 24.9922ZM123.969 39.0078C125.219 39.0078 126.234 38.6641 127.016 37.9766C127.797 37.2891 128.203 36.375 128.234 35.2344H134.586C134.57 36.9531 134.102 38.5312 133.18 39.9688C132.258 41.3906 130.992 42.5 129.383 43.2969C127.789 44.0781 126.023 44.4688 124.086 44.4688C120.461 44.4688 117.602 43.3203 115.508 41.0234C113.414 38.7109 112.367 35.5234 112.367 31.4609V31.0156C112.367 27.1094 113.406 23.9922 115.484 21.6641C117.562 19.3359 120.414 18.1719 124.039 18.1719C127.211 18.1719 129.75 19.0781 131.656 20.8906C133.578 22.6875 134.555 25.0859 134.586 28.0859H128.234C128.203 26.7734 127.797 25.7109 127.016 24.8984C126.234 24.0703 125.203 23.6562 123.922 23.6562C122.344 23.6562 121.148 24.2344 120.336 25.3906C119.539 26.5312 119.141 28.3906 119.141 30.9688V31.6719C119.141 34.2812 119.539 36.1562 120.336 37.2969C121.133 38.4375 122.344 39.0078 123.969 39.0078ZM145.062 21.4062C146.859 19.25 149.117 18.1719 151.836 18.1719C157.336 18.1719 160.125 21.3672 160.203 27.7578V44H153.43V27.9453C153.43 26.4922 153.117 25.4219 152.492 24.7344C151.867 24.0312 150.828 23.6797 149.375 23.6797C147.391 23.6797 145.953 24.4453 145.062 25.9766V44H138.289V8H145.062V21.4062ZM195.406 35.0469C195.406 33.7188 194.938 32.7031 194 32C193.062 31.2812 191.375 30.5312 188.938 29.75C186.5 28.9531 184.57 28.1719 183.148 27.4062C179.273 25.3125 177.336 22.4922 177.336 18.9453C177.336 17.1016 177.852 15.4609 178.883 14.0234C179.93 12.5703 181.422 11.4375 183.359 10.625C185.312 9.8125 187.5 9.40625 189.922 9.40625C192.359 9.40625 194.531 9.85156 196.438 10.7422C198.344 11.6172 199.82 12.8594 200.867 14.4688C201.93 16.0781 202.461 17.9062 202.461 19.9531H195.43C195.43 18.3906 194.938 17.1797 193.953 16.3203C192.969 15.4453 191.586 15.0078 189.805 15.0078C188.086 15.0078 186.75 15.375 185.797 16.1094C184.844 16.8281 184.367 17.7812 184.367 18.9688C184.367 20.0781 184.922 21.0078 186.031 21.7578C187.156 22.5078 188.805 23.2109 190.977 23.8672C194.977 25.0703 197.891 26.5625 199.719 28.3438C201.547 30.125 202.461 32.3438 202.461 35C202.461 37.9531 201.344 40.2734 199.109 41.9609C196.875 43.6328 193.867 44.4688 190.086 44.4688C187.461 44.4688 185.07 43.9922 182.914 43.0391C180.758 42.0703 179.109 40.75 177.969 39.0781C176.844 37.4062 176.281 35.4688 176.281 33.2656H183.336C183.336 37.0312 185.586 38.9141 190.086 38.9141C191.758 38.9141 193.062 38.5781 194 37.9062C194.938 37.2188 195.406 36.2656 195.406 35.0469ZM235.016 44H227.984V29.375H214.273V44H207.242V9.875H214.273V23.7031H227.984V9.875H235.016V44ZM269.211 27.7109C269.211 31.0703 268.617 34.0156 267.43 36.5469C266.242 39.0781 264.539 41.0312 262.32 42.4062C260.117 43.7812 257.586 44.4688 254.727 44.4688C251.898 44.4688 249.375 43.7891 247.156 42.4297C244.938 41.0703 243.219 39.1328 242 36.6172C240.781 34.0859 240.164 31.1797 240.148 27.8984V26.2109C240.148 22.8516 240.75 19.8984 241.953 17.3516C243.172 14.7891 244.883 12.8281 247.086 11.4688C249.305 10.0937 251.836 9.40625 254.68 9.40625C257.523 9.40625 260.047 10.0937 262.25 11.4688C264.469 12.8281 266.18 14.7891 267.383 17.3516C268.602 19.8984 269.211 22.8438 269.211 26.1875V27.7109ZM262.086 26.1641C262.086 22.5859 261.445 19.8672 260.164 18.0078C258.883 16.1484 257.055 15.2188 254.68 15.2188C252.32 15.2188 250.5 16.1406 249.219 17.9844C247.938 19.8125 247.289 22.5 247.273 26.0469V27.7109C247.273 31.1953 247.914 33.8984 249.195 35.8203C250.477 37.7422 252.32 38.7031 254.727 38.7031C257.086 38.7031 258.898 37.7812 260.164 35.9375C261.43 34.0781 262.07 31.375 262.086 27.8281V26.1641ZM281.352 31.9766V44H274.32V9.875H287.633C290.195 9.875 292.445 10.3438 294.383 11.2812C296.336 12.2188 297.836 13.5547 298.883 15.2891C299.93 17.0078 300.453 18.9688 300.453 21.1719C300.453 24.5156 299.305 27.1562 297.008 29.0938C294.727 31.0156 291.562 31.9766 287.516 31.9766H281.352ZM281.352 26.2812H287.633C289.492 26.2812 290.906 25.8438 291.875 24.9688C292.859 24.0938 293.352 22.8438 293.352 21.2188C293.352 19.5469 292.859 18.1953 291.875 17.1641C290.891 16.1328 289.531 15.6016 287.797 15.5703H281.352V26.2812Z" fill="#DAE0E2"/>
<path d="M305.898 9.30469C305.898 8.2526 306.141 7.27604 306.625 6.375C307.115 5.47396 307.789 4.76562 308.648 4.25C309.513 3.72917 310.445 3.46875 311.445 3.46875C312.445 3.46875 313.375 3.72917 314.234 4.25C315.099 4.76562 315.773 5.47396 316.258 6.375C316.747 7.27604 316.992 8.2526 316.992 9.30469C316.992 10.3672 316.745 11.3516 316.25 12.2578C315.755 13.1589 315.078 13.8672 314.219 14.3828C313.365 14.8984 312.44 15.1562 311.445 15.1562C310.44 15.1562 309.508 14.8958 308.648 14.375C307.794 13.8542 307.122 13.1432 306.633 12.2422C306.143 11.3411 305.898 10.362 305.898 9.30469ZM316.031 9.30469C316.031 8.4401 315.836 7.63802 315.445 6.89844C315.055 6.15365 314.503 5.5599 313.789 5.11719C313.076 4.66927 312.294 4.44531 311.445 4.44531C310.617 4.44531 309.846 4.65885 309.133 5.08594C308.424 5.51302 307.867 6.10156 307.461 6.85156C307.055 7.60156 306.852 8.41927 306.852 9.30469C306.852 10.1901 307.052 11.0078 307.453 11.7578C307.859 12.5078 308.417 13.1016 309.125 13.5391C309.839 13.9714 310.612 14.1875 311.445 14.1875C312.279 14.1875 313.052 13.9661 313.766 13.5234C314.484 13.0807 315.042 12.4844 315.438 11.7344C315.833 10.9844 316.031 10.1745 316.031 9.30469ZM310.32 9.89844V12.5312H309.141V5.89062H311.336C312.122 5.89062 312.742 6.07031 313.195 6.42969C313.648 6.78385 313.875 7.28906 313.875 7.94531C313.875 8.52865 313.581 8.98177 312.992 9.30469C313.31 9.46615 313.531 9.69271 313.656 9.98438C313.786 10.2708 313.852 10.6276 313.852 11.0547C313.852 11.4818 313.859 11.7839 313.875 11.9609C313.896 12.138 313.932 12.2865 313.984 12.4062V12.5312H312.773C312.706 12.3542 312.672 11.849 312.672 11.0156C312.672 10.6198 312.586 10.3359 312.414 10.1641C312.242 9.98698 311.956 9.89844 311.555 9.89844H310.32ZM310.32 8.85156H311.383C311.768 8.85156 312.083 8.76823 312.328 8.60156C312.578 8.4349 312.703 8.21615 312.703 7.94531C312.703 7.58073 312.609 7.32292 312.422 7.17188C312.24 7.01562 311.906 6.9349 311.422 6.92969H310.32V8.85156Z" fill="#DAE0E2"/>
</svg>
